<mxfile host="app.diagrams.net" agent="Mozilla/5.0 (Windows NT 10.0; Win64; x64; rv:128.0) Gecko/20100101 Firefox/128.0" version="24.7.5">
  <diagram name="Страница — 1" id="xOGDk6dIPdFbIL_E0ZdW">
    <mxGraphModel dx="2390" dy="1257" grid="1" gridSize="10" guides="1" tooltips="1" connect="1" arrows="1" fold="1" page="1" pageScale="1" pageWidth="1169" pageHeight="827" math="0" shadow="0">
      <root>
        <mxCell id="0" />
        <mxCell id="1" parent="0" />
        <mxCell id="I2X_xct60PAVXAn_Lg33-2" value="Страница Диаграмма" style="swimlane;fontStyle=0;childLayout=stackLayout;horizontal=1;startSize=30;horizontalStack=0;resizeParent=1;resizeParentMax=0;resizeLast=0;collapsible=1;marginBottom=0;whiteSpace=wrap;html=1;fillColor=#dae8fc;strokeColor=#6c8ebf;" vertex="1" parent="1">
          <mxGeometry x="40" y="60" width="140" height="340" as="geometry">
            <mxRectangle x="344" y="210" width="160" height="30" as="alternateBounds" />
          </mxGeometry>
        </mxCell>
        <mxCell id="I2X_xct60PAVXAn_Lg33-3" value="&lt;div&gt;Общие очки&lt;/div&gt;" style="text;strokeColor=none;fillColor=none;align=left;verticalAlign=middle;spacingLeft=4;spacingRight=4;overflow=hidden;points=[[0,0.5],[1,0.5]];portConstraint=eastwest;rotatable=0;whiteSpace=wrap;html=1;" vertex="1" parent="I2X_xct60PAVXAn_Lg33-2">
          <mxGeometry y="30" width="140" height="30" as="geometry" />
        </mxCell>
        <mxCell id="I2X_xct60PAVXAn_Lg33-4" value="ДИАГРАММА" style="text;strokeColor=#6c8ebf;fillColor=#dae8fc;align=left;verticalAlign=middle;spacingLeft=4;spacingRight=4;overflow=hidden;points=[[0,0.5],[1,0.5]];portConstraint=eastwest;rotatable=0;whiteSpace=wrap;html=1;" vertex="1" parent="I2X_xct60PAVXAn_Lg33-2">
          <mxGeometry y="60" width="140" height="130" as="geometry" />
        </mxCell>
        <mxCell id="I2X_xct60PAVXAn_Lg33-6" value="Боттом бар" style="swimlane;whiteSpace=wrap;html=1;fillColor=#1ba1e2;fontColor=#ffffff;strokeColor=#006EAF;" vertex="1" parent="I2X_xct60PAVXAn_Lg33-2">
          <mxGeometry y="190" width="140" height="150" as="geometry">
            <mxRectangle y="90" width="140" height="30" as="alternateBounds" />
          </mxGeometry>
        </mxCell>
        <mxCell id="I2X_xct60PAVXAn_Lg33-7" value="Заметки" style="whiteSpace=wrap;html=1;" vertex="1" parent="I2X_xct60PAVXAn_Lg33-6">
          <mxGeometry y="50" width="140" height="20" as="geometry" />
        </mxCell>
        <mxCell id="I2X_xct60PAVXAn_Lg33-8" style="edgeStyle=orthogonalEdgeStyle;rounded=0;orthogonalLoop=1;jettySize=auto;html=1;exitX=0.5;exitY=1;exitDx=0;exitDy=0;" edge="1" parent="I2X_xct60PAVXAn_Lg33-6" source="I2X_xct60PAVXAn_Lg33-7" target="I2X_xct60PAVXAn_Lg33-7">
          <mxGeometry relative="1" as="geometry" />
        </mxCell>
        <mxCell id="I2X_xct60PAVXAn_Lg33-9" value="inbox" style="whiteSpace=wrap;html=1;" vertex="1" parent="I2X_xct60PAVXAn_Lg33-6">
          <mxGeometry y="70" width="140" height="20" as="geometry" />
        </mxCell>
        <mxCell id="I2X_xct60PAVXAn_Lg33-10" value="Проекты" style="whiteSpace=wrap;html=1;" vertex="1" parent="I2X_xct60PAVXAn_Lg33-6">
          <mxGeometry y="90" width="140" height="20" as="geometry" />
        </mxCell>
        <mxCell id="I2X_xct60PAVXAn_Lg33-11" value="Категории" style="whiteSpace=wrap;html=1;" vertex="1" parent="I2X_xct60PAVXAn_Lg33-6">
          <mxGeometry y="110" width="140" height="20" as="geometry" />
        </mxCell>
        <mxCell id="I2X_xct60PAVXAn_Lg33-12" value="Диаграммы" style="whiteSpace=wrap;html=1;" vertex="1" parent="I2X_xct60PAVXAn_Lg33-6">
          <mxGeometry y="130" width="140" height="20" as="geometry" />
        </mxCell>
        <mxCell id="I2X_xct60PAVXAn_Lg33-53" value="Задачи" style="rounded=0;whiteSpace=wrap;html=1;" vertex="1" parent="I2X_xct60PAVXAn_Lg33-6">
          <mxGeometry y="20" width="140" height="30" as="geometry" />
        </mxCell>
        <mxCell id="I2X_xct60PAVXAn_Lg33-13" value="Страница Категорий" style="swimlane;fontStyle=0;childLayout=stackLayout;horizontal=1;startSize=30;horizontalStack=0;resizeParent=1;resizeParentMax=0;resizeLast=0;collapsible=1;marginBottom=0;whiteSpace=wrap;html=1;fillColor=#f8cecc;strokeColor=#b85450;" vertex="1" parent="1">
          <mxGeometry x="290" y="410" width="140" height="285" as="geometry">
            <mxRectangle x="344" y="210" width="160" height="30" as="alternateBounds" />
          </mxGeometry>
        </mxCell>
        <mxCell id="I2X_xct60PAVXAn_Lg33-14" value="&lt;div&gt;Общие очки&lt;/div&gt;" style="text;strokeColor=none;fillColor=none;align=left;verticalAlign=middle;spacingLeft=4;spacingRight=4;overflow=hidden;points=[[0,0.5],[1,0.5]];portConstraint=eastwest;rotatable=0;whiteSpace=wrap;html=1;" vertex="1" parent="I2X_xct60PAVXAn_Lg33-13">
          <mxGeometry y="30" width="140" height="30" as="geometry" />
        </mxCell>
        <mxCell id="I2X_xct60PAVXAn_Lg33-77" value="Категория 1" style="rounded=0;whiteSpace=wrap;html=1;" vertex="1" parent="I2X_xct60PAVXAn_Lg33-13">
          <mxGeometry y="60" width="140" height="30" as="geometry" />
        </mxCell>
        <mxCell id="I2X_xct60PAVXAn_Lg33-78" value="Категория 2" style="rounded=0;whiteSpace=wrap;html=1;" vertex="1" parent="I2X_xct60PAVXAn_Lg33-13">
          <mxGeometry y="90" width="140" height="30" as="geometry" />
        </mxCell>
        <mxCell id="I2X_xct60PAVXAn_Lg33-80" value="Категория 3" style="rounded=0;whiteSpace=wrap;html=1;" vertex="1" parent="I2X_xct60PAVXAn_Lg33-13">
          <mxGeometry y="120" width="140" height="25" as="geometry" />
        </mxCell>
        <mxCell id="I2X_xct60PAVXAn_Lg33-81" value="Категория 4" style="rounded=0;whiteSpace=wrap;html=1;" vertex="1" parent="I2X_xct60PAVXAn_Lg33-13">
          <mxGeometry y="145" width="140" height="30" as="geometry" />
        </mxCell>
        <mxCell id="I2X_xct60PAVXAn_Lg33-82" value="Категория 5" style="rounded=0;whiteSpace=wrap;html=1;" vertex="1" parent="I2X_xct60PAVXAn_Lg33-13">
          <mxGeometry y="175" width="140" height="30" as="geometry" />
        </mxCell>
        <mxCell id="I2X_xct60PAVXAn_Lg33-29" value="Создать новую Категорию" style="rounded=0;whiteSpace=wrap;html=1;" vertex="1" parent="I2X_xct60PAVXAn_Lg33-13">
          <mxGeometry y="205" width="140" height="60" as="geometry" />
        </mxCell>
        <mxCell id="I2X_xct60PAVXAn_Lg33-16" value="Боттом бар" style="swimlane;whiteSpace=wrap;html=1;fillColor=#1ba1e2;fontColor=#ffffff;strokeColor=#006EAF;" vertex="1" parent="I2X_xct60PAVXAn_Lg33-13">
          <mxGeometry y="265" width="140" height="20" as="geometry">
            <mxRectangle y="210" width="140" height="30" as="alternateBounds" />
          </mxGeometry>
        </mxCell>
        <mxCell id="I2X_xct60PAVXAn_Lg33-17" value="Заметки" style="whiteSpace=wrap;html=1;" vertex="1" parent="I2X_xct60PAVXAn_Lg33-16">
          <mxGeometry y="20" width="140" height="20" as="geometry" />
        </mxCell>
        <mxCell id="I2X_xct60PAVXAn_Lg33-18" style="edgeStyle=orthogonalEdgeStyle;rounded=0;orthogonalLoop=1;jettySize=auto;html=1;exitX=0.5;exitY=1;exitDx=0;exitDy=0;" edge="1" parent="I2X_xct60PAVXAn_Lg33-16">
          <mxGeometry relative="1" as="geometry">
            <mxPoint x="100" y="40" as="sourcePoint" />
            <mxPoint x="100" y="40" as="targetPoint" />
          </mxGeometry>
        </mxCell>
        <mxCell id="I2X_xct60PAVXAn_Lg33-19" value="inbox" style="whiteSpace=wrap;html=1;" vertex="1" parent="I2X_xct60PAVXAn_Lg33-16">
          <mxGeometry y="40" width="140" height="20" as="geometry" />
        </mxCell>
        <mxCell id="I2X_xct60PAVXAn_Lg33-20" value="Проекты" style="whiteSpace=wrap;html=1;" vertex="1" parent="I2X_xct60PAVXAn_Lg33-16">
          <mxGeometry y="60" width="140" height="20" as="geometry" />
        </mxCell>
        <mxCell id="I2X_xct60PAVXAn_Lg33-21" value="Категории" style="whiteSpace=wrap;html=1;" vertex="1" parent="I2X_xct60PAVXAn_Lg33-16">
          <mxGeometry y="80" width="140" height="20" as="geometry" />
        </mxCell>
        <mxCell id="I2X_xct60PAVXAn_Lg33-22" value="Диаграммы" style="whiteSpace=wrap;html=1;" vertex="1" parent="I2X_xct60PAVXAn_Lg33-16">
          <mxGeometry y="100" width="140" height="20" as="geometry" />
        </mxCell>
        <mxCell id="I2X_xct60PAVXAn_Lg33-28" style="edgeStyle=orthogonalEdgeStyle;rounded=0;orthogonalLoop=1;jettySize=auto;html=1;entryX=0.5;entryY=0;entryDx=0;entryDy=0;" edge="1" parent="1" source="I2X_xct60PAVXAn_Lg33-11" target="I2X_xct60PAVXAn_Lg33-13">
          <mxGeometry relative="1" as="geometry" />
        </mxCell>
        <mxCell id="I2X_xct60PAVXAn_Lg33-30" value="Страница Новой Категории" style="swimlane;fontStyle=0;childLayout=stackLayout;horizontal=1;startSize=30;horizontalStack=0;resizeParent=1;resizeParentMax=0;resizeLast=0;collapsible=1;marginBottom=0;whiteSpace=wrap;html=1;fillColor=#008a00;strokeColor=#005700;fontColor=#ffffff;" vertex="1" parent="1">
          <mxGeometry x="445" y="680" width="140" height="390" as="geometry">
            <mxRectangle x="344" y="210" width="160" height="30" as="alternateBounds" />
          </mxGeometry>
        </mxCell>
        <mxCell id="I2X_xct60PAVXAn_Lg33-31" value="Название Категории:" style="text;strokeColor=none;fillColor=none;align=left;verticalAlign=middle;spacingLeft=4;spacingRight=4;overflow=hidden;points=[[0,0.5],[1,0.5]];portConstraint=eastwest;rotatable=0;whiteSpace=wrap;html=1;" vertex="1" parent="I2X_xct60PAVXAn_Lg33-30">
          <mxGeometry y="30" width="140" height="30" as="geometry" />
        </mxCell>
        <mxCell id="I2X_xct60PAVXAn_Lg33-32" value="Цвет категории" style="text;strokeColor=none;fillColor=none;align=left;verticalAlign=middle;spacingLeft=4;spacingRight=4;overflow=hidden;points=[[0,0.5],[1,0.5]];portConstraint=eastwest;rotatable=0;whiteSpace=wrap;html=1;" vertex="1" parent="I2X_xct60PAVXAn_Lg33-30">
          <mxGeometry y="60" width="140" height="30" as="geometry" />
        </mxCell>
        <mxCell id="I2X_xct60PAVXAn_Lg33-41" value="Подкатегории" style="swimlane;fontStyle=0;childLayout=stackLayout;horizontal=1;startSize=30;horizontalStack=0;resizeParent=1;resizeParentMax=0;resizeLast=0;collapsible=1;marginBottom=0;whiteSpace=wrap;html=1;" vertex="1" parent="I2X_xct60PAVXAn_Lg33-30">
          <mxGeometry y="90" width="140" height="180" as="geometry">
            <mxRectangle y="90" width="140" height="30" as="alternateBounds" />
          </mxGeometry>
        </mxCell>
        <mxCell id="I2X_xct60PAVXAn_Lg33-42" value="Подкатегория 1" style="text;strokeColor=none;fillColor=none;align=left;verticalAlign=middle;spacingLeft=4;spacingRight=4;overflow=hidden;points=[[0,0.5],[1,0.5]];portConstraint=eastwest;rotatable=0;whiteSpace=wrap;html=1;" vertex="1" parent="I2X_xct60PAVXAn_Lg33-41">
          <mxGeometry y="30" width="140" height="30" as="geometry" />
        </mxCell>
        <mxCell id="I2X_xct60PAVXAn_Lg33-43" value="Подкатегория 2" style="text;strokeColor=none;fillColor=none;align=left;verticalAlign=middle;spacingLeft=4;spacingRight=4;overflow=hidden;points=[[0,0.5],[1,0.5]];portConstraint=eastwest;rotatable=0;whiteSpace=wrap;html=1;" vertex="1" parent="I2X_xct60PAVXAn_Lg33-41">
          <mxGeometry y="60" width="140" height="30" as="geometry" />
        </mxCell>
        <mxCell id="I2X_xct60PAVXAn_Lg33-44" value="Подкатегория 3" style="text;strokeColor=none;fillColor=none;align=left;verticalAlign=middle;spacingLeft=4;spacingRight=4;overflow=hidden;points=[[0,0.5],[1,0.5]];portConstraint=eastwest;rotatable=0;whiteSpace=wrap;html=1;" vertex="1" parent="I2X_xct60PAVXAn_Lg33-41">
          <mxGeometry y="90" width="140" height="30" as="geometry" />
        </mxCell>
        <mxCell id="I2X_xct60PAVXAn_Lg33-46" value="Добавить подкатегорию" style="rounded=0;whiteSpace=wrap;html=1;" vertex="1" parent="I2X_xct60PAVXAn_Lg33-41">
          <mxGeometry y="120" width="140" height="60" as="geometry" />
        </mxCell>
        <mxCell id="I2X_xct60PAVXAn_Lg33-33" value="Боттом бар" style="swimlane;whiteSpace=wrap;html=1;fillColor=#1ba1e2;fontColor=#ffffff;strokeColor=#006EAF;" vertex="1" parent="I2X_xct60PAVXAn_Lg33-30">
          <mxGeometry y="270" width="140" height="120" as="geometry">
            <mxRectangle y="90" width="140" height="30" as="alternateBounds" />
          </mxGeometry>
        </mxCell>
        <mxCell id="I2X_xct60PAVXAn_Lg33-34" value="Заметки" style="whiteSpace=wrap;html=1;" vertex="1" parent="I2X_xct60PAVXAn_Lg33-33">
          <mxGeometry y="20" width="140" height="20" as="geometry" />
        </mxCell>
        <mxCell id="I2X_xct60PAVXAn_Lg33-35" style="edgeStyle=orthogonalEdgeStyle;rounded=0;orthogonalLoop=1;jettySize=auto;html=1;exitX=0.5;exitY=1;exitDx=0;exitDy=0;" edge="1" parent="I2X_xct60PAVXAn_Lg33-33" source="I2X_xct60PAVXAn_Lg33-34" target="I2X_xct60PAVXAn_Lg33-34">
          <mxGeometry relative="1" as="geometry" />
        </mxCell>
        <mxCell id="I2X_xct60PAVXAn_Lg33-36" value="inbox" style="whiteSpace=wrap;html=1;" vertex="1" parent="I2X_xct60PAVXAn_Lg33-33">
          <mxGeometry y="40" width="140" height="20" as="geometry" />
        </mxCell>
        <mxCell id="I2X_xct60PAVXAn_Lg33-37" value="Проекты" style="whiteSpace=wrap;html=1;" vertex="1" parent="I2X_xct60PAVXAn_Lg33-33">
          <mxGeometry y="60" width="140" height="20" as="geometry" />
        </mxCell>
        <mxCell id="I2X_xct60PAVXAn_Lg33-38" value="Категории" style="whiteSpace=wrap;html=1;" vertex="1" parent="I2X_xct60PAVXAn_Lg33-33">
          <mxGeometry y="80" width="140" height="20" as="geometry" />
        </mxCell>
        <mxCell id="I2X_xct60PAVXAn_Lg33-39" value="Диаграммы" style="whiteSpace=wrap;html=1;" vertex="1" parent="I2X_xct60PAVXAn_Lg33-33">
          <mxGeometry y="100" width="140" height="20" as="geometry" />
        </mxCell>
        <mxCell id="I2X_xct60PAVXAn_Lg33-47" value="Новая Подкатегория" style="swimlane;fontStyle=0;childLayout=stackLayout;horizontal=1;startSize=30;horizontalStack=0;resizeParent=1;resizeParentMax=0;resizeLast=0;collapsible=1;marginBottom=0;whiteSpace=wrap;html=1;fillColor=#60a917;fontColor=#ffffff;strokeColor=#2D7600;" vertex="1" parent="1">
          <mxGeometry x="650" y="840" width="140" height="120" as="geometry" />
        </mxCell>
        <mxCell id="I2X_xct60PAVXAn_Lg33-48" value="Название" style="text;strokeColor=none;fillColor=none;align=left;verticalAlign=middle;spacingLeft=4;spacingRight=4;overflow=hidden;points=[[0,0.5],[1,0.5]];portConstraint=eastwest;rotatable=0;whiteSpace=wrap;html=1;" vertex="1" parent="I2X_xct60PAVXAn_Lg33-47">
          <mxGeometry y="30" width="140" height="30" as="geometry" />
        </mxCell>
        <mxCell id="I2X_xct60PAVXAn_Lg33-49" value="Принять" style="text;strokeColor=none;fillColor=none;align=left;verticalAlign=middle;spacingLeft=4;spacingRight=4;overflow=hidden;points=[[0,0.5],[1,0.5]];portConstraint=eastwest;rotatable=0;whiteSpace=wrap;html=1;" vertex="1" parent="I2X_xct60PAVXAn_Lg33-47">
          <mxGeometry y="60" width="140" height="30" as="geometry" />
        </mxCell>
        <mxCell id="I2X_xct60PAVXAn_Lg33-50" value="Отмена" style="text;strokeColor=none;fillColor=none;align=left;verticalAlign=middle;spacingLeft=4;spacingRight=4;overflow=hidden;points=[[0,0.5],[1,0.5]];portConstraint=eastwest;rotatable=0;whiteSpace=wrap;html=1;" vertex="1" parent="I2X_xct60PAVXAn_Lg33-47">
          <mxGeometry y="90" width="140" height="30" as="geometry" />
        </mxCell>
        <mxCell id="I2X_xct60PAVXAn_Lg33-54" value="Новая задача (+)" style="swimlane;fontStyle=0;childLayout=stackLayout;horizontal=1;startSize=30;horizontalStack=0;resizeParent=1;resizeParentMax=0;resizeLast=0;collapsible=1;marginBottom=0;whiteSpace=wrap;html=1;fillColor=#d5e8d4;strokeColor=#82b366;" vertex="1" parent="1">
          <mxGeometry x="510" y="20" width="140" height="330" as="geometry" />
        </mxCell>
        <mxCell id="I2X_xct60PAVXAn_Lg33-55" value="Выполнить сейчас" style="text;strokeColor=none;fillColor=none;align=left;verticalAlign=middle;spacingLeft=4;spacingRight=4;overflow=hidden;points=[[0,0.5],[1,0.5]];portConstraint=eastwest;rotatable=0;whiteSpace=wrap;html=1;" vertex="1" parent="I2X_xct60PAVXAn_Lg33-54">
          <mxGeometry y="30" width="140" height="30" as="geometry" />
        </mxCell>
        <mxCell id="I2X_xct60PAVXAn_Lg33-71" value="&#xa;Поручения/Контроль&#xa;&#xa;" style="rounded=0;whiteSpace=wrap;html=1;" vertex="1" parent="I2X_xct60PAVXAn_Lg33-54">
          <mxGeometry y="60" width="140" height="40" as="geometry" />
        </mxCell>
        <mxCell id="I2X_xct60PAVXAn_Lg33-72" value="&lt;div&gt;Выполнить потом/ отложенные&lt;/div&gt;&lt;div&gt;&lt;br/&gt;&lt;/div&gt;" style="rounded=0;whiteSpace=wrap;html=1;" vertex="1" parent="I2X_xct60PAVXAn_Lg33-54">
          <mxGeometry y="100" width="140" height="50" as="geometry" />
        </mxCell>
        <mxCell id="I2X_xct60PAVXAn_Lg33-60" value="Когда ни-будь" style="text;strokeColor=none;fillColor=none;align=left;verticalAlign=middle;spacingLeft=4;spacingRight=4;overflow=hidden;points=[[0,0.5],[1,0.5]];portConstraint=eastwest;rotatable=0;whiteSpace=wrap;html=1;" vertex="1" parent="I2X_xct60PAVXAn_Lg33-54">
          <mxGeometry y="150" width="140" height="30" as="geometry" />
        </mxCell>
        <mxCell id="I2X_xct60PAVXAn_Lg33-61" value="Боттом бар" style="swimlane;whiteSpace=wrap;html=1;fillColor=#1ba1e2;fontColor=#ffffff;strokeColor=#006EAF;" vertex="1" parent="I2X_xct60PAVXAn_Lg33-54">
          <mxGeometry y="180" width="140" height="150" as="geometry">
            <mxRectangle y="90" width="140" height="30" as="alternateBounds" />
          </mxGeometry>
        </mxCell>
        <mxCell id="I2X_xct60PAVXAn_Lg33-62" value="Заметки" style="whiteSpace=wrap;html=1;" vertex="1" parent="I2X_xct60PAVXAn_Lg33-61">
          <mxGeometry y="20" width="140" height="20" as="geometry" />
        </mxCell>
        <mxCell id="I2X_xct60PAVXAn_Lg33-63" style="edgeStyle=orthogonalEdgeStyle;rounded=0;orthogonalLoop=1;jettySize=auto;html=1;exitX=0.5;exitY=1;exitDx=0;exitDy=0;" edge="1" parent="I2X_xct60PAVXAn_Lg33-61" source="I2X_xct60PAVXAn_Lg33-62" target="I2X_xct60PAVXAn_Lg33-62">
          <mxGeometry relative="1" as="geometry" />
        </mxCell>
        <mxCell id="I2X_xct60PAVXAn_Lg33-64" value="inbox" style="whiteSpace=wrap;html=1;" vertex="1" parent="I2X_xct60PAVXAn_Lg33-61">
          <mxGeometry y="40" width="140" height="20" as="geometry" />
        </mxCell>
        <mxCell id="I2X_xct60PAVXAn_Lg33-65" value="Проекты" style="whiteSpace=wrap;html=1;" vertex="1" parent="I2X_xct60PAVXAn_Lg33-61">
          <mxGeometry y="60" width="140" height="20" as="geometry" />
        </mxCell>
        <mxCell id="I2X_xct60PAVXAn_Lg33-66" value="Категории" style="whiteSpace=wrap;html=1;" vertex="1" parent="I2X_xct60PAVXAn_Lg33-61">
          <mxGeometry y="80" width="140" height="20" as="geometry" />
        </mxCell>
        <mxCell id="I2X_xct60PAVXAn_Lg33-67" value="Диаграммы" style="whiteSpace=wrap;html=1;" vertex="1" parent="I2X_xct60PAVXAn_Lg33-61">
          <mxGeometry y="100" width="140" height="20" as="geometry" />
        </mxCell>
        <mxCell id="I2X_xct60PAVXAn_Lg33-68" value="Задачи" style="rounded=0;whiteSpace=wrap;html=1;" vertex="1" parent="I2X_xct60PAVXAn_Lg33-61">
          <mxGeometry y="120" width="140" height="30" as="geometry" />
        </mxCell>
        <mxCell id="I2X_xct60PAVXAn_Lg33-73" style="edgeStyle=orthogonalEdgeStyle;rounded=0;orthogonalLoop=1;jettySize=auto;html=1;" edge="1" parent="1" source="I2X_xct60PAVXAn_Lg33-53" target="I2X_xct60PAVXAn_Lg33-54">
          <mxGeometry relative="1" as="geometry" />
        </mxCell>
        <mxCell id="I2X_xct60PAVXAn_Lg33-74" style="edgeStyle=orthogonalEdgeStyle;rounded=0;orthogonalLoop=1;jettySize=auto;html=1;entryX=0.5;entryY=0;entryDx=0;entryDy=0;" edge="1" parent="1" source="I2X_xct60PAVXAn_Lg33-29" target="I2X_xct60PAVXAn_Lg33-30">
          <mxGeometry relative="1" as="geometry">
            <mxPoint x="537" y="537" as="targetPoint" />
          </mxGeometry>
        </mxCell>
        <mxCell id="I2X_xct60PAVXAn_Lg33-76" style="edgeStyle=orthogonalEdgeStyle;rounded=0;orthogonalLoop=1;jettySize=auto;html=1;entryX=0.5;entryY=0;entryDx=0;entryDy=0;" edge="1" parent="1" source="I2X_xct60PAVXAn_Lg33-46" target="I2X_xct60PAVXAn_Lg33-47">
          <mxGeometry relative="1" as="geometry" />
        </mxCell>
        <mxCell id="I2X_xct60PAVXAn_Lg33-83" style="edgeStyle=orthogonalEdgeStyle;rounded=0;orthogonalLoop=1;jettySize=auto;html=1;entryX=0.5;entryY=0;entryDx=0;entryDy=0;" edge="1" parent="1" source="I2X_xct60PAVXAn_Lg33-77" target="I2X_xct60PAVXAn_Lg33-84">
          <mxGeometry relative="1" as="geometry">
            <mxPoint x="629.9999999999998" y="460" as="targetPoint" />
          </mxGeometry>
        </mxCell>
        <mxCell id="I2X_xct60PAVXAn_Lg33-84" value="Страница Категорий" style="swimlane;fontStyle=0;childLayout=stackLayout;horizontal=1;startSize=30;horizontalStack=0;resizeParent=1;resizeParentMax=0;resizeLast=0;collapsible=1;marginBottom=0;whiteSpace=wrap;html=1;fillColor=#f0a30a;strokeColor=#BD7000;fontColor=#000000;" vertex="1" parent="1">
          <mxGeometry x="970" y="507.5" width="160" height="515" as="geometry">
            <mxRectangle x="344" y="210" width="160" height="30" as="alternateBounds" />
          </mxGeometry>
        </mxCell>
        <mxCell id="I2X_xct60PAVXAn_Lg33-85" value="&lt;div&gt;Общие очки&lt;/div&gt;" style="text;strokeColor=none;fillColor=none;align=left;verticalAlign=middle;spacingLeft=4;spacingRight=4;overflow=hidden;points=[[0,0.5],[1,0.5]];portConstraint=eastwest;rotatable=0;whiteSpace=wrap;html=1;" vertex="1" parent="I2X_xct60PAVXAn_Lg33-84">
          <mxGeometry y="30" width="160" height="30" as="geometry" />
        </mxCell>
        <mxCell id="I2X_xct60PAVXAn_Lg33-193" value="Проекты" style="swimlane;childLayout=stackLayout;resizeParent=1;resizeParentMax=0;startSize=20;html=1;" vertex="1" parent="I2X_xct60PAVXAn_Lg33-84">
          <mxGeometry y="60" width="160" height="130" as="geometry">
            <mxRectangle y="60" width="160" height="30" as="alternateBounds" />
          </mxGeometry>
        </mxCell>
        <mxCell id="I2X_xct60PAVXAn_Lg33-194" value="Прокет" style="swimlane;startSize=20;html=1;" vertex="1" parent="I2X_xct60PAVXAn_Lg33-193">
          <mxGeometry y="20" width="100" height="110" as="geometry">
            <mxRectangle y="20" width="40" height="255" as="alternateBounds" />
          </mxGeometry>
        </mxCell>
        <mxCell id="I2X_xct60PAVXAn_Lg33-195" value="Проект 1" style="text;strokeColor=none;fillColor=none;align=left;verticalAlign=middle;spacingLeft=4;spacingRight=4;overflow=hidden;points=[[0,0.5],[1,0.5]];portConstraint=eastwest;rotatable=0;whiteSpace=wrap;html=1;" vertex="1" parent="I2X_xct60PAVXAn_Lg33-194">
          <mxGeometry y="20" width="100" height="30" as="geometry" />
        </mxCell>
        <mxCell id="I2X_xct60PAVXAn_Lg33-196" value="" style="text;strokeColor=none;fillColor=none;align=left;verticalAlign=middle;spacingLeft=4;spacingRight=4;overflow=hidden;points=[[0,0.5],[1,0.5]];portConstraint=eastwest;rotatable=0;whiteSpace=wrap;html=1;" vertex="1" parent="I2X_xct60PAVXAn_Lg33-194">
          <mxGeometry y="50" width="100" height="30" as="geometry" />
        </mxCell>
        <mxCell id="I2X_xct60PAVXAn_Lg33-197" value="" style="text;strokeColor=none;fillColor=none;align=left;verticalAlign=middle;spacingLeft=4;spacingRight=4;overflow=hidden;points=[[0,0.5],[1,0.5]];portConstraint=eastwest;rotatable=0;whiteSpace=wrap;html=1;" vertex="1" parent="I2X_xct60PAVXAn_Lg33-194">
          <mxGeometry y="80" width="100" height="30" as="geometry" />
        </mxCell>
        <mxCell id="I2X_xct60PAVXAn_Lg33-220" value="Проект 2" style="text;strokeColor=none;fillColor=none;align=left;verticalAlign=middle;spacingLeft=4;spacingRight=4;overflow=hidden;points=[[0,0.5],[1,0.5]];portConstraint=eastwest;rotatable=0;whiteSpace=wrap;html=1;" vertex="1" parent="I2X_xct60PAVXAn_Lg33-194">
          <mxGeometry y="50" width="100" height="30" as="geometry" />
        </mxCell>
        <mxCell id="I2X_xct60PAVXAn_Lg33-221" value="Проект 3" style="text;strokeColor=none;fillColor=none;align=left;verticalAlign=middle;spacingLeft=4;spacingRight=4;overflow=hidden;points=[[0,0.5],[1,0.5]];portConstraint=eastwest;rotatable=0;whiteSpace=wrap;html=1;" vertex="1" parent="I2X_xct60PAVXAn_Lg33-194">
          <mxGeometry y="80" width="100" height="30" as="geometry" />
        </mxCell>
        <mxCell id="I2X_xct60PAVXAn_Lg33-198" value="Очки" style="swimlane;startSize=20;html=1;" vertex="1" parent="I2X_xct60PAVXAn_Lg33-193">
          <mxGeometry x="100" y="20" width="60" height="110" as="geometry" />
        </mxCell>
        <mxCell id="I2X_xct60PAVXAn_Lg33-199" value="25" style="rounded=0;whiteSpace=wrap;html=1;" vertex="1" parent="I2X_xct60PAVXAn_Lg33-198">
          <mxGeometry y="20" width="60" height="30" as="geometry" />
        </mxCell>
        <mxCell id="I2X_xct60PAVXAn_Lg33-200" value="32" style="rounded=0;whiteSpace=wrap;html=1;" vertex="1" parent="I2X_xct60PAVXAn_Lg33-198">
          <mxGeometry y="50" width="60" height="30" as="geometry" />
        </mxCell>
        <mxCell id="I2X_xct60PAVXAn_Lg33-201" value="15" style="rounded=0;whiteSpace=wrap;html=1;" vertex="1" parent="I2X_xct60PAVXAn_Lg33-198">
          <mxGeometry y="80" width="60" height="30" as="geometry" />
        </mxCell>
        <mxCell id="I2X_xct60PAVXAn_Lg33-179" value="Подкатегория 1" style="swimlane;childLayout=stackLayout;resizeParent=1;resizeParentMax=0;startSize=20;html=1;" vertex="1" collapsed="1" parent="I2X_xct60PAVXAn_Lg33-84">
          <mxGeometry y="190" width="160" height="30" as="geometry">
            <mxRectangle y="190" width="160" height="130" as="alternateBounds" />
          </mxGeometry>
        </mxCell>
        <mxCell id="I2X_xct60PAVXAn_Lg33-180" value="Задачи" style="swimlane;startSize=20;html=1;" vertex="1" parent="I2X_xct60PAVXAn_Lg33-179">
          <mxGeometry y="20" width="100" height="110" as="geometry">
            <mxRectangle y="20" width="40" height="110" as="alternateBounds" />
          </mxGeometry>
        </mxCell>
        <mxCell id="I2X_xct60PAVXAn_Lg33-184" value="Задача 1" style="text;strokeColor=none;fillColor=none;align=left;verticalAlign=middle;spacingLeft=4;spacingRight=4;overflow=hidden;points=[[0,0.5],[1,0.5]];portConstraint=eastwest;rotatable=0;whiteSpace=wrap;html=1;" vertex="1" parent="I2X_xct60PAVXAn_Lg33-180">
          <mxGeometry y="20" width="100" height="30" as="geometry" />
        </mxCell>
        <mxCell id="I2X_xct60PAVXAn_Lg33-185" value="Задача 2" style="text;strokeColor=none;fillColor=none;align=left;verticalAlign=middle;spacingLeft=4;spacingRight=4;overflow=hidden;points=[[0,0.5],[1,0.5]];portConstraint=eastwest;rotatable=0;whiteSpace=wrap;html=1;" vertex="1" parent="I2X_xct60PAVXAn_Lg33-180">
          <mxGeometry y="50" width="100" height="30" as="geometry" />
        </mxCell>
        <mxCell id="I2X_xct60PAVXAn_Lg33-186" value="Задача 3" style="text;strokeColor=none;fillColor=none;align=left;verticalAlign=middle;spacingLeft=4;spacingRight=4;overflow=hidden;points=[[0,0.5],[1,0.5]];portConstraint=eastwest;rotatable=0;whiteSpace=wrap;html=1;" vertex="1" parent="I2X_xct60PAVXAn_Lg33-180">
          <mxGeometry y="80" width="100" height="30" as="geometry" />
        </mxCell>
        <mxCell id="I2X_xct60PAVXAn_Lg33-181" value="Очки" style="swimlane;startSize=20;html=1;" vertex="1" parent="I2X_xct60PAVXAn_Lg33-179">
          <mxGeometry x="100" y="20" width="60" height="110" as="geometry" />
        </mxCell>
        <mxCell id="I2X_xct60PAVXAn_Lg33-189" value="25" style="rounded=0;whiteSpace=wrap;html=1;" vertex="1" parent="I2X_xct60PAVXAn_Lg33-181">
          <mxGeometry y="20" width="60" height="30" as="geometry" />
        </mxCell>
        <mxCell id="I2X_xct60PAVXAn_Lg33-191" value="32" style="rounded=0;whiteSpace=wrap;html=1;" vertex="1" parent="I2X_xct60PAVXAn_Lg33-181">
          <mxGeometry y="50" width="60" height="30" as="geometry" />
        </mxCell>
        <mxCell id="I2X_xct60PAVXAn_Lg33-190" value="15" style="rounded=0;whiteSpace=wrap;html=1;" vertex="1" parent="I2X_xct60PAVXAn_Lg33-181">
          <mxGeometry y="80" width="60" height="30" as="geometry" />
        </mxCell>
        <mxCell id="I2X_xct60PAVXAn_Lg33-87" value="Подкатегория 2" style="rounded=0;whiteSpace=wrap;html=1;" vertex="1" parent="I2X_xct60PAVXAn_Lg33-84">
          <mxGeometry y="220" width="160" height="30" as="geometry" />
        </mxCell>
        <mxCell id="I2X_xct60PAVXAn_Lg33-88" value="Подкатегория 3" style="rounded=0;whiteSpace=wrap;html=1;" vertex="1" parent="I2X_xct60PAVXAn_Lg33-84">
          <mxGeometry y="250" width="160" height="25" as="geometry" />
        </mxCell>
        <mxCell id="I2X_xct60PAVXAn_Lg33-89" value="Подкатегория 4" style="rounded=0;whiteSpace=wrap;html=1;" vertex="1" parent="I2X_xct60PAVXAn_Lg33-84">
          <mxGeometry y="275" width="160" height="30" as="geometry" />
        </mxCell>
        <mxCell id="I2X_xct60PAVXAn_Lg33-90" value="Подкатегория 5" style="rounded=0;whiteSpace=wrap;html=1;" vertex="1" parent="I2X_xct60PAVXAn_Lg33-84">
          <mxGeometry y="305" width="160" height="30" as="geometry" />
        </mxCell>
        <mxCell id="I2X_xct60PAVXAn_Lg33-99" value="Добавить подкатегорию" style="rounded=0;whiteSpace=wrap;html=1;" vertex="1" parent="I2X_xct60PAVXAn_Lg33-84">
          <mxGeometry y="335" width="160" height="60" as="geometry" />
        </mxCell>
        <mxCell id="I2X_xct60PAVXAn_Lg33-92" value="Боттом бар" style="swimlane;whiteSpace=wrap;html=1;fillColor=#1ba1e2;fontColor=#ffffff;strokeColor=#006EAF;" vertex="1" parent="I2X_xct60PAVXAn_Lg33-84">
          <mxGeometry y="395" width="160" height="120" as="geometry">
            <mxRectangle y="210" width="140" height="30" as="alternateBounds" />
          </mxGeometry>
        </mxCell>
        <mxCell id="I2X_xct60PAVXAn_Lg33-93" value="Заметки" style="whiteSpace=wrap;html=1;" vertex="1" parent="I2X_xct60PAVXAn_Lg33-92">
          <mxGeometry y="20" width="160" height="20" as="geometry" />
        </mxCell>
        <mxCell id="I2X_xct60PAVXAn_Lg33-95" value="inbox" style="whiteSpace=wrap;html=1;" vertex="1" parent="I2X_xct60PAVXAn_Lg33-92">
          <mxGeometry y="40" width="160" height="20" as="geometry" />
        </mxCell>
        <mxCell id="I2X_xct60PAVXAn_Lg33-96" value="Проекты" style="whiteSpace=wrap;html=1;" vertex="1" parent="I2X_xct60PAVXAn_Lg33-92">
          <mxGeometry y="60" width="160" height="20" as="geometry" />
        </mxCell>
        <mxCell id="I2X_xct60PAVXAn_Lg33-97" value="Категории" style="whiteSpace=wrap;html=1;" vertex="1" parent="I2X_xct60PAVXAn_Lg33-92">
          <mxGeometry y="80" width="160" height="20" as="geometry" />
        </mxCell>
        <mxCell id="I2X_xct60PAVXAn_Lg33-98" value="Диаграммы" style="whiteSpace=wrap;html=1;" vertex="1" parent="I2X_xct60PAVXAn_Lg33-92">
          <mxGeometry y="100" width="160" height="20" as="geometry" />
        </mxCell>
        <mxCell id="I2X_xct60PAVXAn_Lg33-100" value="Страница Подкатегории" style="swimlane;fontStyle=0;childLayout=stackLayout;horizontal=1;startSize=30;horizontalStack=0;resizeParent=1;resizeParentMax=0;resizeLast=0;collapsible=1;marginBottom=0;whiteSpace=wrap;html=1;fillColor=#ffff88;strokeColor=#36393d;" vertex="1" parent="1">
          <mxGeometry x="1190" y="415" width="140" height="290" as="geometry">
            <mxRectangle x="344" y="210" width="160" height="30" as="alternateBounds" />
          </mxGeometry>
        </mxCell>
        <mxCell id="I2X_xct60PAVXAn_Lg33-101" value="&lt;div&gt;Общие очки&lt;/div&gt;" style="text;strokeColor=#36393d;fillColor=#ffff88;align=left;verticalAlign=middle;spacingLeft=4;spacingRight=4;overflow=hidden;points=[[0,0.5],[1,0.5]];portConstraint=eastwest;rotatable=0;whiteSpace=wrap;html=1;" vertex="1" parent="I2X_xct60PAVXAn_Lg33-100">
          <mxGeometry y="30" width="140" height="30" as="geometry" />
        </mxCell>
        <mxCell id="I2X_xct60PAVXAn_Lg33-102" value="" style="rounded=0;whiteSpace=wrap;html=1;fillColor=#ffff88;strokeColor=#36393d;" vertex="1" parent="I2X_xct60PAVXAn_Lg33-100">
          <mxGeometry y="60" width="140" height="30" as="geometry" />
        </mxCell>
        <mxCell id="I2X_xct60PAVXAn_Lg33-115" value="Задачи подкатегории" style="swimlane;fontStyle=0;childLayout=stackLayout;horizontal=1;startSize=30;horizontalStack=0;resizeParent=1;resizeParentMax=0;resizeLast=0;collapsible=1;marginBottom=0;whiteSpace=wrap;html=1;fillColor=#ffff88;strokeColor=#36393d;" vertex="1" parent="I2X_xct60PAVXAn_Lg33-100">
          <mxGeometry y="90" width="140" height="120" as="geometry" />
        </mxCell>
        <mxCell id="I2X_xct60PAVXAn_Lg33-116" value="Задача 1" style="text;strokeColor=#36393d;fillColor=#ffff88;align=left;verticalAlign=middle;spacingLeft=4;spacingRight=4;overflow=hidden;points=[[0,0.5],[1,0.5]];portConstraint=eastwest;rotatable=0;whiteSpace=wrap;html=1;" vertex="1" parent="I2X_xct60PAVXAn_Lg33-115">
          <mxGeometry y="30" width="140" height="30" as="geometry" />
        </mxCell>
        <mxCell id="I2X_xct60PAVXAn_Lg33-117" value="Задача 2" style="text;strokeColor=#36393d;fillColor=#ffff88;align=left;verticalAlign=middle;spacingLeft=4;spacingRight=4;overflow=hidden;points=[[0,0.5],[1,0.5]];portConstraint=eastwest;rotatable=0;whiteSpace=wrap;html=1;" vertex="1" parent="I2X_xct60PAVXAn_Lg33-115">
          <mxGeometry y="60" width="140" height="30" as="geometry" />
        </mxCell>
        <mxCell id="I2X_xct60PAVXAn_Lg33-118" value="Задача 3" style="text;strokeColor=#36393d;fillColor=#ffff88;align=left;verticalAlign=middle;spacingLeft=4;spacingRight=4;overflow=hidden;points=[[0,0.5],[1,0.5]];portConstraint=eastwest;rotatable=0;whiteSpace=wrap;html=1;" vertex="1" parent="I2X_xct60PAVXAn_Lg33-115">
          <mxGeometry y="90" width="140" height="30" as="geometry" />
        </mxCell>
        <mxCell id="I2X_xct60PAVXAn_Lg33-107" value="Добавить подкатегорию" style="rounded=0;whiteSpace=wrap;html=1;fillColor=#ffff88;strokeColor=#36393d;" vertex="1" parent="I2X_xct60PAVXAn_Lg33-100">
          <mxGeometry y="210" width="140" height="60" as="geometry" />
        </mxCell>
        <mxCell id="I2X_xct60PAVXAn_Lg33-108" value="Боттом бар" style="swimlane;whiteSpace=wrap;html=1;fillColor=#ffff88;strokeColor=#36393d;" vertex="1" parent="I2X_xct60PAVXAn_Lg33-100">
          <mxGeometry y="270" width="140" height="20" as="geometry">
            <mxRectangle y="210" width="140" height="30" as="alternateBounds" />
          </mxGeometry>
        </mxCell>
        <mxCell id="I2X_xct60PAVXAn_Lg33-109" value="Заметки" style="whiteSpace=wrap;html=1;fillColor=#ffff88;strokeColor=#36393d;" vertex="1" parent="I2X_xct60PAVXAn_Lg33-108">
          <mxGeometry y="20" width="140" height="20" as="geometry" />
        </mxCell>
        <mxCell id="I2X_xct60PAVXAn_Lg33-110" style="edgeStyle=orthogonalEdgeStyle;rounded=0;orthogonalLoop=1;jettySize=auto;html=1;exitX=0.5;exitY=1;exitDx=0;exitDy=0;fillColor=#ffff88;strokeColor=#36393d;" edge="1" parent="I2X_xct60PAVXAn_Lg33-108">
          <mxGeometry relative="1" as="geometry">
            <mxPoint x="100" y="40" as="sourcePoint" />
            <mxPoint x="100" y="40" as="targetPoint" />
          </mxGeometry>
        </mxCell>
        <mxCell id="I2X_xct60PAVXAn_Lg33-111" value="inbox" style="whiteSpace=wrap;html=1;fillColor=#ffff88;strokeColor=#36393d;" vertex="1" parent="I2X_xct60PAVXAn_Lg33-108">
          <mxGeometry y="40" width="140" height="20" as="geometry" />
        </mxCell>
        <mxCell id="I2X_xct60PAVXAn_Lg33-112" value="Проекты" style="whiteSpace=wrap;html=1;fillColor=#ffff88;strokeColor=#36393d;" vertex="1" parent="I2X_xct60PAVXAn_Lg33-108">
          <mxGeometry y="60" width="140" height="20" as="geometry" />
        </mxCell>
        <mxCell id="I2X_xct60PAVXAn_Lg33-113" value="Категории" style="whiteSpace=wrap;html=1;fillColor=#ffff88;strokeColor=#36393d;" vertex="1" parent="I2X_xct60PAVXAn_Lg33-108">
          <mxGeometry y="80" width="140" height="20" as="geometry" />
        </mxCell>
        <mxCell id="I2X_xct60PAVXAn_Lg33-114" value="Диаграммы" style="whiteSpace=wrap;html=1;fillColor=#ffff88;strokeColor=#36393d;" vertex="1" parent="I2X_xct60PAVXAn_Lg33-108">
          <mxGeometry y="100" width="140" height="20" as="geometry" />
        </mxCell>
      </root>
    </mxGraphModel>
  </diagram>
</mxfile>
